<svg xmlns="http://www.w3.org/2000/svg" width="1280" height="400" viewBox="0 0 1280 400" role="img" aria-labelledby="bannerTitle bannerDesc">
  <title id="bannerTitle">Commandless</title>
  <desc id="bannerDesc">Operate Linux servers through a policy-gated, audited workflow.</desc>
  <defs>
    <linearGradient id="bg" x1="0" y1="0" x2="1" y2="1">
      <stop offset="0" stop-color="#050506"/>
      <stop offset="1" stop-color="#0b0e13"/>
    </linearGradient>
    <radialGradient id="glow">
      <stop offset="0" stop-color="#57c8f5" stop-opacity="0.22"/>
      <stop offset="1" stop-color="#57c8f5" stop-opacity="0"/>
    </radialGradient>
    <linearGradient id="accentGrad" x1="0" y1="0" x2="1" y2="1">
      <stop offset="0" stop-color="#57c8f5"/>
      <stop offset="1" stop-color="#3ed6c0"/>
    </linearGradient>
    <linearGradient id="deskGrad" x1="0" y1="0" x2="1" y2="1">
      <stop offset="0" stop-color="#2fe0d2"/>
      <stop offset="1" stop-color="#1ab4c8"/>
    </linearGradient>
    <linearGradient id="tileCmd" x1="0" y1="1" x2="1" y2="0">
      <stop offset="0" stop-color="#7cc0ef"/>
      <stop offset="1" stop-color="#63dcc9"/>
    </linearGradient>
  </defs>

  
  <rect width="1280" height="400" rx="20" fill="url(#bg)"/>
  <g><line x1="800" y1="0" x2="800" y2="400" stroke="rgba(255,255,255,0.02)" stroke-width="1"/><line x1="844" y1="0" x2="844" y2="400" stroke="rgba(255,255,255,0.02)" stroke-width="1"/><line x1="888" y1="0" x2="888" y2="400" stroke="rgba(255,255,255,0.03)" stroke-width="1"/><line x1="932" y1="0" x2="932" y2="400" stroke="rgba(255,255,255,0.04)" stroke-width="1"/><line x1="976" y1="0" x2="976" y2="400" stroke="rgba(255,255,255,0.04)" stroke-width="1"/><line x1="1020" y1="0" x2="1020" y2="400" stroke="rgba(255,255,255,0.05)" stroke-width="1"/><line x1="1064" y1="0" x2="1064" y2="400" stroke="rgba(255,255,255,0.06)" stroke-width="1"/><line x1="1108" y1="0" x2="1108" y2="400" stroke="rgba(255,255,255,0.06)" stroke-width="1"/><line x1="1152" y1="0" x2="1152" y2="400" stroke="rgba(255,255,255,0.07)" stroke-width="1"/><line x1="1196" y1="0" x2="1196" y2="400" stroke="rgba(255,255,255,0.08)" stroke-width="1"/><line x1="1240" y1="0" x2="1240" y2="400" stroke="rgba(255,255,255,0.09)" stroke-width="1"/></g>
  <ellipse cx="1023" cy="200" rx="320" ry="220" fill="url(#glow)"/>
  <g transform="translate(-59.48 50.01) scale(1.05)">
  
    <rect x="864" y="54" width="268" height="44" rx="13" fill="rgba(255,255,255,0.05)" stroke="rgba(255,255,255,0.1)" stroke-width="1"/>
    <circle cx="888" cy="76" r="5" fill="rgba(255,255,255,0.25)"/>
    <rect x="908" y="70" width="132" height="12" rx="6" fill="rgba(255,255,255,0.13)"/>
    <g><rect x="1060" y="71" width="8" height="10" rx="3" fill="#3ed6c0"/><rect x="1074" y="71" width="8" height="10" rx="3" fill="rgba(255,255,255,0.18)"/><rect x="1088" y="71" width="8" height="10" rx="3" fill="rgba(255,255,255,0.18)"/></g>
  
    <rect x="864" y="112" width="268" height="44" rx="13" fill="rgba(255,255,255,0.05)" stroke="#57c8f5" stroke-width="1.5"/>
    <circle cx="888" cy="134" r="5" fill="#57c8f5"/>
    <rect x="908" y="128" width="132" height="12" rx="6" fill="rgba(255,255,255,0.22)"/>
    <g><rect x="1060" y="129" width="8" height="10" rx="3" fill="#3ed6c0"/><rect x="1074" y="129" width="8" height="10" rx="3" fill="rgba(255,255,255,0.18)"/><rect x="1088" y="129" width="8" height="10" rx="3" fill="rgba(255,255,255,0.18)"/></g>
  
    <rect x="864" y="170" width="268" height="44" rx="13" fill="rgba(255,255,255,0.05)" stroke="rgba(255,255,255,0.1)" stroke-width="1"/>
    <circle cx="888" cy="192" r="5" fill="rgba(255,255,255,0.25)"/>
    <rect x="908" y="186" width="132" height="12" rx="6" fill="rgba(255,255,255,0.13)"/>
    <g><rect x="1060" y="187" width="8" height="10" rx="3" fill="#3ed6c0"/><rect x="1074" y="187" width="8" height="10" rx="3" fill="rgba(255,255,255,0.18)"/><rect x="1088" y="187" width="8" height="10" rx="3" fill="rgba(255,255,255,0.18)"/></g>
  <g transform="translate(1122 148)">
    <path d="M38 0 L76 15 V46 C76 68 58 84 38 92 C18 84 0 68 0 46 V15 Z" fill="#050506" stroke="#050506" stroke-width="8"/>
    <path d="M38 0 L76 15 V46 C76 68 58 84 38 92 C18 84 0 68 0 46 V15 Z" fill="rgba(255,255,255,0.05)" stroke="url(#accentGrad)" stroke-width="2.5"/>
    <path d="M23 45 l11 11 l20 -23" fill="none" stroke="#57c8f5" stroke-width="5" stroke-linecap="round" stroke-linejoin="round"/>
  </g></g>
  <g transform="translate(64 74) scale(1.62) translate(-64 -48)">
  <rect x="64" y="48" width="84" height="84" rx="22" fill="url(#tileCmd)"/>
  
    <rect x="80" y="72" width="52" height="19" rx="7" fill="none" stroke="#0a1420" stroke-width="5"/>
    <circle cx="90" cy="81.5" r="2.6" fill="#0a1420"/>
    <rect x="98" y="78.5" width="24" height="6" rx="3" fill="#0a1420"/>
  
    <rect x="80" y="98" width="52" height="19" rx="7" fill="none" stroke="#0a1420" stroke-width="5"/>
    <circle cx="90" cy="107.5" r="2.6" fill="#0a1420"/>
    <rect x="98" y="104.5" width="24" height="6" rx="3" fill="#0a1420"/>
  <path d="M128 59 l3.4 8.2 8.2 3.4 -8.2 3.4 -3.4 8.2 -3.4 -8.2 -8.2 -3.4 8.2 -3.4 Z" fill="#0a1420"/></g>

  <text x="232" y="160" font-family="ui-sans-serif,-apple-system,BlinkMacSystemFont,'Segoe UI',Roboto,'Helvetica Neue',Arial,sans-serif" font-size="88" font-weight="800" letter-spacing="-0.03em" fill="#f4f5f5">Commandless</text>
  <text x="236" y="212" font-family="ui-sans-serif,-apple-system,BlinkMacSystemFont,'Segoe UI',Roboto,'Helvetica Neue',Arial,sans-serif" font-size="30" fill="#a3a9b1">Operate Linux servers through</text>
  <text x="236" y="250" font-family="ui-sans-serif,-apple-system,BlinkMacSystemFont,'Segoe UI',Roboto,'Helvetica Neue',Arial,sans-serif" font-size="30" fill="#a3a9b1">a policy-gated, audited workflow.</text>
  
    <g>
      <rect x="236" y="280" width="198.4" height="46" rx="14" fill="rgba(255,255,255,0.05)" stroke="rgba(255,255,255,0.15000000000000002)"/>
      <circle cx="261" cy="303" r="5" fill="#57c8f5"/>
      <text x="278" y="310" font-family="ui-monospace,SFMono-Regular,Menlo,Consolas,'Liberation Mono',monospace" font-size="20" letter-spacing="0.04em" fill="#f4f5f5">AI-ASSISTED</text>
    </g>
    <g>
      <rect x="446.4" y="280" width="99.2" height="46" rx="14" fill="rgba(255,255,255,0.05)" stroke="rgba(255,255,255,0.15000000000000002)"/>
      <circle cx="471.4" cy="303" r="5" fill="#57c8f5"/>
      <text x="488.4" y="310" font-family="ui-monospace,SFMono-Regular,Menlo,Consolas,'Liberation Mono',monospace" font-size="20" letter-spacing="0.04em" fill="#f4f5f5">SSH</text>
    </g>

  <rect x="0.5" y="0.5" width="1279" height="399" rx="19.5" fill="none" stroke="rgba(255,255,255,0.2)"/>
</svg>
